<svg width="53" height="53" viewBox="0 0 53 53" fill="none" xmlns="http://www.w3.org/2000/svg">
<path d="M15.28 18.7695H0V34.0395H15.28V18.7695Z" fill="#27AAE1"/>
<path d="M37.2402 18.75V34.07L52.6302 26.2L37.2402 18.75Z" fill="#2B3990"/>
<path d="M33.9697 26.3998C33.9697 30.6198 30.5497 34.0498 26.3197 34.0498C22.0897 34.0498 18.6797 30.6298 18.6797 26.3998C18.6797 22.1698 22.0997 18.7598 26.3197 18.7598C30.5397 18.7598 33.9697 22.1798 33.9697 26.3998Z" fill="#1C75BC"/>
<path d="M15.2795 35.9502H0.0195312V52.7302H15.2795V35.9502Z" fill="#27AAE1"/>
<path d="M15.2795 0H0.0195312V16.76H15.2795V0Z" fill="#27AAE1"/>
<path d="M52.6302 24.08V0H37.2402V16.74L52.6302 24.08Z" fill="#2B3990"/>
<path d="M37.25 36.0895V52.7295H52.63V28.4395L37.25 36.0895Z" fill="#2B3990"/>
<path d="M26.3411 16.74C29.4511 16.74 32.2211 18.22 33.9711 20.52V0H18.6211V20.62C20.3711 18.27 23.1711 16.74 26.3311 16.74" fill="#1C75BC"/>
<path d="M26.3389 35.9503C23.1789 35.9503 20.3789 34.4303 18.6289 32.0703V52.7303H33.9789V32.1703C32.2289 34.4703 29.4589 35.9503 26.3489 35.9503" fill="#1C75BC"/>
</svg>
